<?xml version="1.0" encoding="UTF-8" standalone="no"?>
<!-- Created with Inkscape (http://www.inkscape.org/) -->

<svg
   xmlns:dc="http://purl.org/dc/elements/1.1/"
   xmlns:cc="http://creativecommons.org/ns#"
   xmlns:rdf="http://www.w3.org/1999/02/22-rdf-syntax-ns#"
   xmlns:svg="http://www.w3.org/2000/svg"
   xmlns="http://www.w3.org/2000/svg"
   xmlns:sodipodi="http://sodipodi.sourceforge.net/DTD/sodipodi-0.dtd"
   xmlns:inkscape="http://www.inkscape.org/namespaces/inkscape"
   width="300mm"
   height="120mm"
   viewBox="0 0 300 120"
   version="1.1"
   id="svg8"
   inkscape:export-filename="/home/towa/source/maschinendeck/frauk/logo.png"
   inkscape:export-xdpi="42.333332"
   inkscape:export-ydpi="42.333332"
   inkscape:version="0.92.3 (2405546, 2018-03-11)"
   sodipodi:docname="logo.svg">
  <defs
     id="defs2" />
  <sodipodi:namedview
     id="base"
     pagecolor="#ffffff"
     bordercolor="#666666"
     borderopacity="1.0"
     inkscape:pageopacity="0.0"
     inkscape:pageshadow="2"
     inkscape:zoom="0.7"
     inkscape:cx="646.51073"
     inkscape:cy="74.285714"
     inkscape:document-units="mm"
     inkscape:current-layer="layer2"
     showgrid="false"
     height="180mm"
     inkscape:window-width="1600"
     inkscape:window-height="900"
     inkscape:window-x="0"
     inkscape:window-y="0"
     inkscape:window-maximized="0" />
  <metadata
     id="metadata5">
    <rdf:RDF>
      <cc:Work
         rdf:about="">
        <dc:format>image/svg+xml</dc:format>
        <dc:type
           rdf:resource="http://purl.org/dc/dcmitype/StillImage" />
        <dc:title></dc:title>
      </cc:Work>
    </rdf:RDF>
  </metadata>
  <g
     inkscape:groupmode="layer"
     id="layer2"
     inkscape:label="bg"
     style="display:inline">
    <path
       style="opacity:1;fill:#00ff81;fill-opacity:1;stroke:none;stroke-width:9.44881916;stroke-linecap:butt;stroke-linejoin:round;stroke-miterlimit:4;stroke-dasharray:none;stroke-opacity:1;paint-order:normal"
       d="M 0 0 L 0 453.54297 L 1133.8574 453.54297 L 1133.8574 0 L 0 0 z M 22.677734 94.4375 L 769.10547 94.4375 L 769.10547 430.86523 L 22.677734 430.86523 L 22.677734 94.4375 z M 115.64258 118.7793 C 78.389706 118.7793 67.148437 145.11231 67.148438 177.86914 L 67.148438 251.08984 L 53.982422 251.08984 L 53.982422 278.06641 L 67.148438 278.06641 L 67.148438 401.38672 L 96.052734 401.38672 L 96.052734 278.06641 L 135.875 278.06641 L 135.875 251.08984 L 96.052734 251.08984 L 96.052734 186.54102 C 96.052734 171.76833 96.052158 145.75586 116.60547 145.75586 C 122.70723 145.75586 130.09438 149.28826 135.875 151.85742 L 135.875 122.63281 C 129.45209 120.06365 122.70778 118.7793 115.64258 118.7793 z M 607.73633 122.63281 L 607.73633 401.38672 L 636.64062 401.38672 L 636.64062 342.9375 L 646.5957 332.98242 L 700.22656 401.38672 L 737.80078 401.38672 L 667.14844 313.39258 L 731.37891 251.08984 L 693.16211 251.08984 L 636.64062 307.61133 L 636.64062 122.63281 L 607.73633 122.63281 z M 222.70898 246.59375 C 203.44026 246.59375 188.66676 257.83505 181.60156 275.49805 L 180.63867 275.49805 L 180.63867 251.08984 L 151.73633 251.08984 L 151.73633 401.38672 L 180.63867 401.38672 L 180.63867 327.52344 C 180.63867 303.11639 184.49343 274.21289 215.64453 274.21289 C 222.38858 274.21289 228.16831 275.81842 233.30664 280.31445 L 246.47266 253.98047 C 239.40746 249.48443 231.05876 246.59375 222.70898 246.59375 z M 322.12305 246.59375 C 278.44727 246.59375 251.15039 284.16878 251.15039 325.27539 C 251.15039 368.30887 277.16215 406.52539 323.08594 406.52539 C 344.60268 406.52539 362.5872 394.96407 374.14844 377.94336 L 374.79102 377.94336 L 374.79102 401.38672 L 403.69336 401.38672 L 403.69336 251.08984 L 374.79102 251.08984 L 374.79102 276.14062 L 374.14844 276.14062 C 362.26606 258.15651 344.28208 246.59375 322.12305 246.59375 z M 440.18945 251.08984 L 440.18945 337.47852 C 440.18945 378.58513 459.45733 406.52539 503.77539 406.52539 C 548.09346 406.52539 567.36328 378.58513 567.36328 337.47852 L 567.36328 251.08984 L 538.45898 251.08984 L 538.45898 334.26758 C 538.45898 358.35348 532.35733 379.54883 503.77539 379.54883 C 475.19345 379.54883 469.0918 358.35348 469.0918 334.26758 L 469.0918 251.08984 L 440.18945 251.08984 z M 327.58203 272.28711 C 358.73314 272.28711 376.39648 297.01405 376.39648 326.23828 C 376.39648 355.78366 359.05428 380.83398 327.58203 380.83398 C 297.07322 380.83398 280.05273 354.49908 280.05273 326.23828 C 280.05273 298.29863 297.71551 272.28711 327.58203 272.28711 z "
       transform="scale(0.26458333)"
       id="rect1381" />
  </g>
</svg>
